PathFileType	4	(X/Y/Z)	./resultDataOpenSim/trcMotMarkerGrf/sub10/qtm-13-01.trc
DataRate	CameraRate	NumFrames	NumMarkers	Units	OrigDataRate	OrigDataStartFrame	OrigNumFrames
250.000000	250.000000	8	24	m	250.000000	112	444
Frame#	Time	L.Toe.Tip			R.Toe.Tip			L.Ankle.Lat			R.Ankle.Lat			L.Ankle.Med			R.Ankle.Med			L.Heel			R.Heel			L.Knee.Lat			R.Knee.Lat			L.Knee.Med			R.Knee.Med			L.Thigh.Upper			R.Thigh.Upper			L.ASIS			R.ASIS			V.Sacral			L.Acromium			R.Acromium			C7			L.Elbow			R.Elbow			L.Wrist.Lat			R.Wrist.Lat
		X1	Y1	Z1	X2	Y2	Z2	X3	Y3	Z3	X4	Y4	Z4	X5	Y5	Z5	X6	Y6	Z6	X7	Y7	Z7	X8	Y8	Z8	X9	Y9	Z9	X10	Y10	Z10	X11	Y11	Z11	X12	Y12	Z12	X13	Y13	Z13	X14	Y14	Z14	X15	Y15	Z15	X16	Y16	Z16	X17	Y17	Z17	X18	Y18	Z18	X19	Y19	Z19	X20	Y20	Z20	X21	Y21	Z21	X22	Y22	Z22	X23	Y23	Z23	X24	Y24	Z24

112	0.444	-0.43440007	0.074643984	-0.1870881	-0.7024561	0.039123957	-0.0027752937	-0.56701532	0.10409559	-0.20150202	-0.84285359	0.053853803	0.038551868	-0.55091546	0.12106079	-0.11893704	-0.82720808	0.084215662	-0.043461332	-0.62632633	0.067598374	-0.15287987	-0.89502988	0.030308687	-0.0081082086	-0.52268834	0.48952882	-0.1939708	-0.77173408	0.44836628	0.096203532	-0.50520035	0.46554496	-0.07705285	-0.76161157	0.45471934	-0.033369989	-0.67185767	0.84973367	-0.22591267	-0.72150091	0.86216759	0.1552653	-0.62343187	0.95545483	-0.14941021	-0.63593644	0.95341677	0.09202951	-0.82633578	0.97225937	-0.044977522	-0.65048504	1.423421	-0.17862217	-0.66516513	1.4194726	0.14174149	-0.73670535	1.4584104	-0.024095952	-0.79499028	1.1197921	-0.25187818	-0.75591298	1.0857003	0.23945016	-0.70337315	0.89347721	-0.2946638	-0.5819454	0.91875156	0.30311105
113	0.448	-0.41535924	0.076191644	-0.18541725	-0.70251589	0.039241888	-0.002614192	-0.54876367	0.1018979	-0.20034734	-0.84293832	0.053970894	0.038376776	-0.53310471	0.11963053	-0.11784865	-0.82721032	0.084234693	-0.043469709	-0.60710739	0.063812328	-0.15192958	-0.89505251	0.030420933	-0.0083509644	-0.51602716	0.48881919	-0.19309889	-0.77064281	0.44830886	0.096394091	-0.49855335	0.46509897	-0.076053504	-0.76050804	0.45447357	-0.033286476	-0.66508733	0.84936184	-0.22587861	-0.71734175	0.86186683	0.15525112	-0.61696212	0.95484849	-0.14901322	-0.63098566	0.9528483	0.092444314	-0.82045658	0.97161159	-0.046021615	-0.64502182	1.4226479	-0.17837353	-0.65970586	1.418861	0.14194744	-0.73080991	1.4576332	-0.023964483	-0.79082246	1.1199035	-0.25182854	-0.74837571	1.0846068	0.24060908	-0.70156216	0.89290835	-0.29542428	-0.57198823	0.91996886	0.30357158
114	0.452	-0.39644959	0.07794794	-0.18358259	-0.70257662	0.03937412	-0.0024691912	-0.53056765	0.099870952	-0.19910321	-0.84306569	0.054075639	0.038245938	-0.51549761	0.11833979	-0.11663363	-0.82712961	0.08426339	-0.043440434	-0.58795901	0.060379706	-0.15061695	-0.89509334	0.030596335	-0.0088238884	-0.50945133	0.48791895	-0.19237343	-0.76955451	0.44827588	0.096517989	-0.49201222	0.46448125	-0.07516216	-0.75920297	0.45423377	-0.033118122	-0.65834212	0.84889824	-0.22584803	-0.71312582	0.86149749	0.1551993	-0.6105601	0.95416482	-0.14867478	-0.62614164	0.95221845	0.092832276	-0.81454182	0.97088339	-0.047054247	-0.63954531	1.4218011	-0.17812433	-0.65423911	1.4181848	0.14213935	-0.72488149	1.4567845	-0.023857621	-0.78660725	1.1199488	-0.25174337	-0.74084108	1.083465	0.24176896	-0.69975367	0.89229622	-0.29618806	-0.56202313	0.92116208	0.30399263
115	0.456	-0.37773425	0.079923863	-0.18162135	-0.70266563	0.039452836	-0.0023714887	-0.51245256	0.098006317	-0.19777461	-0.84329424	0.054173591	0.038177191	-0.49802618	0.11725772	-0.11525495	-0.82700408	0.084320378	-0.043396362	-0.56894373	0.057402288	-0.14888673	-0.89514012	0.030835738	-0.009529736	-0.50293591	0.48685349	-0.19182028	-0.7684626	0.44825393	0.096570571	-0.48565956	0.46366699	-0.074431375	-0.75762736	0.45401193	-0.03284424	-0.6515966	0.84833933	-0.2258162	-0.70885269	0.86106408	0.1551095	-0.60425173	0.95340582	-0.148408	-0.62132044	0.95153071	0.093196424	-0.80859339	0.97007596	-0.048076902	-0.63406665	1.4208796	-0.17787748	-0.64877468	1.4174363	0.14231706	-0.71919187	1.4558829	-0.023717415	-0.78236515	1.119931	-0.25165803	-0.73330381	1.0822781	0.24292675	-0.69793304	0.89164446	-0.29695522	-0.55201576	0.92233315	0.30436803
116	0.46	-0.35930601	0.082102824	-0.17955599	-0.70278391	0.039440228	-0.0023279029	-0.49443526	0.096335504	-0.19635446	-0.84358128	0.054271073	0.038151061	-0.48073484	0.11640617	-0.11373488	-0.82689656	0.084389572	-0.04337938	-0.55009729	0.0548288	-0.14701098	-0.89515899	0.031092076	-0.010310956	-0.49648732	0.48563011	-0.19142889	-0.76723744	0.44819812	0.096602764	-0.47954119	0.46263929	-0.073893434	-0.75579064	0.4538091	-0.032512627	-0.64482292	0.84769095	-0.22578741	-0.70453389	0.86056161	0.15500882	-0.59798198	0.95257395	-0.14820323	-0.61647322	0.95078468	0.093543063	-0.80261324	0.96919052	-0.049091054	-0.62858882	1.4198881	-0.17763629	-0.64328471	1.4166001	0.14248492	-0.713763	1.4549272	-0.02353069	-0.77810018	1.119858	-0.25158476	-0.72573785	1.0810474	0.24406371	-0.69609328	0.89095291	-0.2977265	-0.54196985	0.92347968	0.3046999
117	0.464	-0.34120191	0.084487987	-0.17735626	-0.70289655	0.03936912	-0.0023152935	-0.47654427	0.094894637	-0.1948389	-0.84374616	0.05436357	0.038101725	-0.46368858	0.11573262	-0.11211931	-0.82682445	0.084450098	-0.043408723	-0.53130812	0.052417756	-0.14544716	-0.89511726	0.031306801	-0.01097945	-0.49011332	0.4842315	-0.19116676	-0.76574016	0.44807202	0.096673708	-0.47363582	0.46141697	-0.073532781	-0.7538484	0.45360033	-0.032271246	-0.6379842	0.84696231	-0.22577397	-0.70017708	0.8599795	0.15491774	-0.59168897	0.95166827	-0.1480395	-0.61158392	0.94997741	0.0938782	-0.79660335	0.96822833	-0.050098214	-0.62310324	1.4188321	-0.17740123	-0.63773889	1.4156639	0.14263761	-0.70841677	1.4539022	-0.023330831	-0.773824	1.1197357	-0.25152767	-0.71810727	1.0797643	0.24515172	-0.69422878	0.890219	-0.29850008	-0.53190641	0.92459776	0.3049936
118	0.468	-0.32338536	0.087111545	-0.1749686	-0.70296221	0.039300153	-0.0023055088	-0.45881977	0.09369476	-0.19323859	-0.84370086	0.054452038	0.037996936	-0.44687717	0.1151848	-0.11043296	-0.82675972	0.084497241	-0.043479115	-0.51243182	0.04997256	-0.14438984	-0.89503014	0.031437797	-0.011376667	-0.48378483	0.48264268	-0.19099315	-0.76394333	0.447877	0.096790893	-0.46783947	0.46004555	-0.073271592	-0.75200963	0.45334779	-0.032262986	-0.63100342	0.84616251	-0.22578783	-0.69577586	0.85931828	0.15482776	-0.58532378	0.95068539	-0.1478997	-0.60664818	0.94910831	0.094199682	-0.79056567	0.96719061	-0.051099912	-0.61759837	1.4177127	-0.17717186	-0.63214048	1.4146271	0.14276247	-0.70301132	1.4528024	-0.023144245	-0.76957451	1.1195654	-0.25149401	-0.7103863	1.0784102	0.24616757	-0.69231594	0.8894446	-0.29926398	-0.52184413	0.92568577	0.30525302
119	0.472	-0.30582562	0.089985681	-0.17238264	-0.702965	0.03926745	-0.0022871909	-0.4413059	0.092732788	-0.19158542	-0.84360593	0.054551037	0.037887133	-0.43028896	0.11478118	-0.10870744	-0.82667129	0.084536374	-0.043579199	-0.49355812	0.04756836	-0.14356564	-0.89497797	0.031454015	-0.011298415	-0.47745823	0.48087545	-0.19086871	-0.76189824	0.44763055	0.096918313	-0.46202689	0.45855174	-0.073024609	-0.75034269	0.45303713	-0.032478027	-0.6238122	0.84529675	-0.22581894	-0.69131636	0.85859222	0.15471798	-0.57885004	0.94962268	-0.14777574	-0.60166439	0.9481799	0.094495854	-0.78450217	0.96607861	-0.052097685	-0.61207123	1.4165237	-0.17695298	-0.62650857	1.4134995	0.14285795	-0.69752505	1.4516338	-0.022974137	-0.76540407	1.1193451	-0.25148942	-0.70258536	1.0769694	0.24711489	-0.6903346	0.88863424	-0.30000552	-0.51179495	0.92674457	0.30548031
